<svg width="565" height="300" viewBox="0 0 565 300" fill="none" xmlns="http://www.w3.org/2000/svg">
<g clip-path="url(#clip0_366_700)">
<path d="M118.609 155.993C105.218 152.332 93.66 149.175 93.66 136.83C93.66 128.061 100.689 121.436 110.025 121.436C121.327 121.436 124.73 128.951 128.011 136.219C130.73 142.24 133.306 147.929 140.223 147.929C146.013 147.929 150.377 143.703 150.377 138.092C150.377 125.407 134.823 112.28 108.8 112.28C85.181 112.28 68.0428 125.167 68.0428 142.929C68.0428 166.635 86.4277 171.534 102.65 175.868C115.935 179.405 127.411 182.47 127.411 194.652C127.411 204.295 120.682 210.046 109.416 210.046C96.649 210.046 93.0892 202.368 89.642 194.938C86.8783 188.979 84.2647 183.344 76.9799 183.344C70.1006 183.344 66 187.261 66 193.816C66 206.091 82.237 218.791 109.416 218.791C135.094 218.791 153.028 206.447 153.028 188.77C153.028 165.389 134.741 160.397 118.609 155.993Z" fill="#57349B"/>
<path d="M288.331 112.28C281.046 112.28 276.337 116.97 276.337 124.222C276.337 131.226 280.243 135.421 284.388 139.856C288.954 144.747 293.671 149.809 293.671 159.328C293.671 185.914 276.795 207.306 262.827 207.306C259.65 207.306 257.066 206.284 255.144 204.272C252.102 201.083 250.623 195.441 250.743 187.508L251.148 118.123C251.148 116.042 250.547 114.478 249.376 113.472C248.009 112.303 245.966 111.978 243.285 112.505L223.308 116.707C220.687 117.202 219.005 118.99 219.005 121.281V121.908C219.005 123.99 220.514 125.406 222.106 126.908C224.284 128.959 226.755 131.273 226.755 136.002V165.009C226.755 191.486 213.665 207.313 201.003 207.313C198.036 207.313 195.558 206.299 193.643 204.287C190.564 201.06 189.002 195.41 189.122 187.934L189.527 118.131C189.527 116.266 189.054 114.943 188.07 114.068C186.478 112.644 183.827 112.814 181.694 113.139L160.042 116.715C157.594 117.218 155.949 119.052 155.949 121.281V121.908C155.949 123.99 157.459 125.406 159.059 126.908C161.237 128.959 163.707 131.273 163.707 136.002V178.685C163.707 215.076 186.501 219 196.301 219C210.729 219 222.474 212.584 230.39 200.417C235.009 212.421 244.727 219 257.915 219C283.239 219 308.879 194.102 308.879 146.512C308.894 125.399 301.016 112.28 288.331 112.28Z" fill="#57349B"/>
<path d="M364.68 162.131C356.891 163.733 344.425 163.989 336.314 163.424C335.961 160.506 335.788 157.364 335.788 154.082C335.788 135.654 345.589 122.288 359.092 122.288C369.441 122.288 378.348 131.173 378.543 141.683C378.754 156.884 371.649 160.552 364.68 162.131ZM404.281 182.966C402.381 182.176 400.09 182.888 398.708 184.699L398.626 184.831C394.367 193.608 382.719 199.737 370.32 199.737C355.637 199.737 344.192 190.496 338.784 174.313C351.071 175.443 361.127 175.056 369.486 173.137C390.439 168.501 402.944 156.729 402.944 141.66C402.944 134.13 400.458 127.776 395.554 122.76C388.802 115.864 377.807 112.126 364.627 112.266C335.578 112.482 314.489 134.571 314.489 164.786C314.489 197.206 335.217 218.985 366.069 218.985C380.654 218.985 390.049 212.995 395.359 207.972C401.337 202.314 405.55 194.621 406.616 187.401L406.624 187.362C406.812 185.311 405.94 183.655 404.281 182.966Z" fill="#57349B"/>
<path d="M448.042 206.811C445.722 204.891 443.326 202.91 443.326 198.653V65.0544C443.326 63.1891 442.545 61.6103 441.186 60.728C439.563 59.6754 437.325 59.7605 434.87 60.9756L414.262 71.4859C412.429 72.4301 410.364 73.4904 410.364 75.9825V76.6094C410.364 78.4514 411.686 79.7516 413.21 81.2686C415.306 83.335 417.912 82.8474 417.912 87.8471V198.646C417.912 202.933 415.749 204.915 413.653 206.834C411.963 208.39 410.364 209.86 410.364 212.314V212.94C410.364 215.34 412.354 216.888 415.418 216.888H446.428C449.529 216.888 451.692 215.27 451.692 212.94V212.314C451.692 209.837 449.92 208.366 448.042 206.811Z" fill="#57349B"/>
<path d="M494.35 206.811C492.029 204.891 489.634 202.91 489.634 198.653V65.0544C489.634 63.1891 488.852 61.6103 487.493 60.728C485.871 59.6754 483.625 59.7605 481.177 60.9756L460.569 71.4859C458.737 72.4301 456.672 73.4904 456.672 75.9825V76.6094C456.672 78.4514 457.986 79.7516 459.518 81.2686C461.613 83.335 464.219 82.8474 464.219 87.8471V198.646C464.219 202.933 462.056 204.915 459.961 206.834C458.271 208.39 456.664 209.86 456.664 212.314V212.94C456.664 215.34 458.654 216.888 461.718 216.888H492.728C495.829 216.888 497.992 215.27 497.992 212.94V212.314C498 209.837 496.227 208.366 494.35 206.811Z" fill="#57349B"/>
</g>
<defs>
<clipPath id="clip0_366_700">
<rect width="432" height="180" fill="white" transform="translate(66 60)"/>
</clipPath>
</defs>
</svg>
